<?xml version="1.0" encoding="utf-8"?>
<!-- Generator: Adobe Illustrator 20.1.0, SVG Export Plug-In . SVG Version: 6.00 Build 0)  -->
<svg version="1.1" id="Layer_1" xmlns="http://www.w3.org/2000/svg" xmlns:xlink="http://www.w3.org/1999/xlink" x="0px" y="0px"
	 width="600px" height="250.1px" viewBox="0 0 600 250.1" style="enable-background:new 0 0 600 250.1;" xml:space="preserve">
<style type="text/css">
	.Drop_x0020_Shadow{fill:none;}
	.Round_x0020_Corners_x0020_2_x0020_pt{fill:#FFFFFF;stroke:#231F20;stroke-miterlimit:10;}
	.Live_x0020_Reflect_x{fill:none;}
	.Bevel_x0020_Soft{fill:url(#SVGID_1_);}
	.Dusk{fill:#FFFFFF;}
	.Foliage_GS{fill:#FFDD00;}
	.Pompadour_GS{fill-rule:evenodd;clip-rule:evenodd;fill:#44ACE1;}
	.st0{fill:#22C1C5;}
	.st1{fill:#006BFD;}
	.st2{fill:#C643CA;}
	.st3{fill:#58595B;}
</style>
<linearGradient id="SVGID_1_" gradientUnits="userSpaceOnUse" x1="0" y1="-164.1962" x2="0.7071" y2="-163.4891">
	<stop  offset="0" style="stop-color:#DEDFE3"/>
	<stop  offset="0.1783" style="stop-color:#DADBDF"/>
	<stop  offset="0.3611" style="stop-color:#CECFD3"/>
	<stop  offset="0.546" style="stop-color:#B9BCBF"/>
	<stop  offset="0.7324" style="stop-color:#9CA0A2"/>
	<stop  offset="0.9181" style="stop-color:#787D7E"/>
	<stop  offset="1" style="stop-color:#656B6C"/>
</linearGradient>
<g>
	<circle class="st0" cx="79.7" cy="87.7" r="10.9"/>
	<path class="st1" d="M93.1,184l25-3.9c3.4-0.5,6.5-0.1,9.2,1.4c2.7,1.5,4.2,3.5,4.5,6.1l0.1,1.1c0.3,2.6-0.6,5-2.9,7.3
		c-2.2,2.2-5.1,3.6-8.5,4.2l-25,3.9c-3.5,0.5-6.5,0.1-9.2-1.4c-2.7-1.5-4.2-3.5-4.5-6.1l-0.1-1.1c-0.3-2.6,0.6-5,2.8-7.3
		C86.8,186,89.6,184.6,93.1,184z"/>
	<path class="st1" d="M89.8,157.5l25-3.9c3.4-0.5,6.5-0.1,9.2,1.4c2.7,1.5,4.2,3.5,4.5,6.1l0.1,1.1c0.3,2.6-0.6,5-2.9,7.3
		c-2.2,2.2-5.1,3.6-8.5,4.2l-25,3.9c-3.5,0.5-6.5,0.1-9.2-1.4c-2.7-1.5-4.2-3.5-4.5-6.1l-0.1-1.1c-0.3-2.6,0.6-5,2.8-7.3
		C83.5,159.4,86.4,158,89.8,157.5z"/>
	<path class="st2" d="M86.7,130.8l68.5-10.8c3.4-0.5,6.5-0.1,9.2,1.4c2.7,1.5,4.2,3.5,4.5,6.1l0.1,1.1c0.3,2.6-0.6,5-2.8,7.3
		c-2.2,2.2-5.1,3.6-8.5,4.2l-68.5,10.8c-3.5,0.5-6.5,0.1-9.2-1.4c-2.7-1.5-4.2-3.5-4.5-6.1l-0.1-1.1c-0.3-2.6,0.6-5,2.8-7.3
		C80.4,132.7,83.3,131.4,86.7,130.8z"/>
	<path class="st2" d="M83.2,104.3l113.5-17.9c3.4-0.5,6.5-0.1,9.2,1.4c2.7,1.5,4.2,3.5,4.5,6.1l0.1,1.1c0.3,2.6-0.6,5-2.8,7.3
		c-2.2,2.2-5.1,3.6-8.5,4.2L85.6,124.4c-3.5,0.5-6.5,0.1-9.2-1.4c-2.7-1.5-4.2-3.5-4.5-6.1l-0.1-1.1c-0.3-2.6,0.6-5,2.8-7.3
		C76.9,106.2,79.7,104.8,83.2,104.3z"/>
	<path class="st0" d="M128.2,70l65.5-10.5c3.4-0.5,6.5-0.1,9.2,1.4c2.7,1.5,4.2,3.5,4.5,6.1l0.1,1.1c0.3,2.6-0.6,5-2.8,7.3
		c-2.2,2.2-5.1,3.6-8.5,4.2l-65.5,10.5c-3.4,0.5-6.5,0.1-9.2-1.4c-2.7-1.5-4.2-3.5-4.5-6.1l-0.1-1.1c-0.3-2.6,0.6-5,2.9-7.3
		C121.9,72,124.8,70.6,128.2,70z"/>
	<path class="st0" d="M76.9,51.1l55.1-8.7c3.4-0.5,6.5-0.1,9.2,1.4c2.7,1.5,4.2,3.5,4.5,6.1l0.1,1.1c0.3,2.6-0.6,5-2.9,7.3
		c-2.2,2.2-5.1,3.6-8.5,4.2l-55.1,8.7c-3.5,0.5-6.5,0.1-9.2-1.4c-2.7-1.5-4.2-3.5-4.5-6.1l-0.1-1.1c-0.3-2.6,0.6-5,2.8-7.3
		C70.6,53.1,73.4,51.7,76.9,51.1z"/>
</g>
<g>
	<g>
		<path class="st3" d="M198.2,167.3v26.2h-9.7V129h11c5.4,0,9.5,0.4,12.3,1.1c2.8,0.8,5.2,2.2,7.4,4.3c3.7,3.6,5.6,8.2,5.6,13.7
			c0,5.9-2,10.6-5.9,14.1c-4,3.5-9.3,5.2-16,5.2H198.2z M198.2,158.3h3.6c8.9,0,13.4-3.4,13.4-10.3c0-6.7-4.6-10-13.8-10h-3.2V158.3
			z"/>
		<path class="st3" d="M231.5,161c0-9.1,3.3-16.9,10-23.4c6.6-6.5,14.6-9.8,23.9-9.8c9.2,0,17.1,3.3,23.7,9.9
			c6.6,6.6,9.9,14.5,9.9,23.7c0,9.3-3.3,17.2-10,23.6c-6.7,6.5-14.7,9.7-24.1,9.7c-8.3,0-15.8-2.9-22.5-8.7
			C235.2,179.7,231.5,171.3,231.5,161z M241.3,161.1c0,7.1,2.4,13,7.2,17.6c4.8,4.6,10.3,6.9,16.5,6.9c6.8,0,12.5-2.3,17.1-7
			c4.7-4.7,7-10.5,7-17.3c0-6.9-2.3-12.7-6.9-17.3c-4.6-4.7-10.2-7-17-7c-6.7,0-12.4,2.3-17,7C243.6,148.6,241.3,154.3,241.3,161.1z
			"/>
		<path class="st3" d="M311.3,193.5V129h9.7c4.3,0,7.8,0.3,10.3,1c2.6,0.7,4.8,1.8,6.6,3.4c1.8,1.6,3.2,3.7,4.3,6.1
			c1.1,2.5,1.6,5,1.6,7.5c0,4.6-1.8,8.5-5.3,11.8c3.4,1.2,6.1,3.2,8.1,6.1c2,2.9,3,6.3,3,10.1c0,5-1.8,9.3-5.4,12.8
			c-2.1,2.1-4.6,3.6-7.2,4.5c-2.9,0.8-6.6,1.2-11,1.2H311.3z M321,156.7h3.1c3.6,0,6.3-0.8,8-2.4c1.7-1.6,2.5-4,2.5-7.1
			c0-3-0.9-5.3-2.6-6.9c-1.7-1.6-4.2-2.4-7.5-2.4H321V156.7z M321,184.4h6c4.4,0,7.6-0.9,9.7-2.6c2.2-1.9,3.3-4.2,3.3-7.1
			c0-2.8-1-5.1-3.1-7c-2-1.9-5.7-2.8-10.9-2.8H321V184.4z"/>
		<path class="st3" d="M371.6,129v38.9c0,5.5,0.9,9.6,2.7,12.2c2.7,3.7,6.5,5.6,11.4,5.6c4.9,0,8.8-1.9,11.5-5.6
			c1.8-2.5,2.7-6.5,2.7-12.2V129h9.7v41.6c0,6.8-2.1,12.4-6.4,16.8c-4.8,4.9-10.6,7.4-17.6,7.4c-6.9,0-12.8-2.5-17.5-7.4
			c-4.2-4.4-6.4-10-6.4-16.8V129H371.6z"/>
		<path class="st3" d="M472.9,132.4V144c-5.6-4.7-11.5-7.1-17.5-7.1c-6.6,0-12.2,2.4-16.8,7.2c-4.6,4.7-6.9,10.5-6.9,17.4
			c0,6.8,2.3,12.5,6.9,17.1c4.6,4.7,10.2,7,16.8,7c3.4,0,6.3-0.6,8.7-1.7c1.3-0.6,2.7-1.3,4.2-2.3c1.4-0.9,2.9-2.1,4.5-3.4V190
			c-5.6,3.2-11.4,4.7-17.6,4.7c-9.2,0-17.1-3.2-23.6-9.7c-6.5-6.5-9.7-14.3-9.7-23.5c0-8.2,2.7-15.6,8.2-22
			c6.7-7.9,15.3-11.8,26-11.8C461.9,127.7,467.5,129.3,472.9,132.4z"/>
		<path class="st3" d="M523.1,177.9h-27.6l-7.2,15.7h-10.5l32-68.6l30.8,68.6h-10.7L523.1,177.9z M519.2,168.7l-9.6-22l-10,22H519.2
			z"/>
	</g>
</g>
</svg>
